<?xml version="1.0" encoding="UTF-8" standalone="no"?>
<!DOCTYPE svg PUBLIC "-//W3C//DTD SVG 1.1//EN" "http://www.w3.org/Graphics/SVG/1.1/DTD/svg11.dtd">
<svg width="100%" height="100%" viewBox="0 0 2285 872" version="1.1" xmlns="http://www.w3.org/2000/svg" xmlns:xlink="http://www.w3.org/1999/xlink" xml:space="preserve" xmlns:serif="http://www.serif.com/" style="fill-rule:evenodd;clip-rule:evenodd;stroke-linejoin:round;stroke-miterlimit:2;">
    <g transform="matrix(1,0,0,1,-200.001,-94.8478)">
        <g transform="matrix(5.55556,0,0,5.55556,320.931,376.874)">
            <path d="M0,23.406C0,-25.462 30.048,-42.7 56.458,-42.7C70.059,-42.7 85.241,-37.322 92.516,-21.982L74.803,-11.07C69.268,-20.084 63.1,-23.722 54.719,-23.722C36.532,-23.722 23.564,-6.484 23.564,21.983C23.564,37.955 29.573,47.761 43.648,47.761C49.974,47.761 56.3,46.179 60.096,44.281L63.575,24.671L47.286,24.671L50.132,8.698L87.297,8.698L78.915,55.668C69.11,61.519 54.561,66.106 39.379,66.106C14.707,66.106 0,52.347 0,23.406" style="fill:rgb(0,107,147);fill-rule:nonzero;"/>
        </g>
        <g transform="matrix(5.55556,0,0,5.55556,825.259,438.374)">
            <path d="M0,26.253C0,-6.009 18.029,-29.415 49.816,-29.415C56.458,-29.415 68.003,-27.992 79.232,-23.563L68.478,37.165L67.371,53.138L48.551,53.138L48.709,45.073L48.077,44.914C42.7,51.24 35.267,55.668 25.462,55.668C6.642,55.668 0,42.542 0,26.253M48.393,27.834L55.351,-12.019C53.454,-12.968 49.816,-13.6 45.863,-13.6C27.834,-13.6 22.141,9.331 22.141,23.722C22.141,32.263 24.829,39.537 33.211,39.537C41.593,39.537 47.286,33.686 48.393,27.834" style="fill:rgb(0,107,147);fill-rule:nonzero;"/>
        </g>
        <g transform="matrix(5.55556,0,0,5.55556,1191.64,410.259)">
            <path d="M0,78.125C0,62.152 10.121,49.975 30.206,40.644C25.778,38.114 21.033,36.058 16.921,34.16L18.977,21.983L50.448,-4.902L16.763,-4.902L19.768,-21.982L81.287,-21.982L78.915,-8.856L39.853,24.83L48.234,28.941C61.835,35.425 67.528,45.072 67.528,58.515C67.528,83.185 50.132,100.107 26.41,100.107C8.54,100.107 0,91.726 0,78.125M46.337,61.519C46.337,56.142 44.755,52.03 41.276,49.343C27.201,55.668 20.401,64.999 20.401,74.171C20.401,79.864 22.931,83.66 29.099,83.66C40.011,83.66 46.337,73.064 46.337,61.519" style="fill:rgb(0,107,147);fill-rule:nonzero;"/>
        </g>
        <g transform="matrix(5.55556,0,0,5.55556,1592.28,453.313)">
            <path d="M0,20.717C0,-6.326 17.713,-32.104 47.286,-32.104C62.152,-32.104 71.008,-24.671 71.008,-12.652C71.008,14.55 39.379,18.503 22.299,19.136C21.824,27.834 25.462,36.057 37.165,36.057C45.704,36.057 64.929,31.313 73.159,21.708L75.606,38.13C71.969,40.819 48.235,52.821 31.471,52.821C9.331,52.821 0,39.22 0,20.717M51.24,-9.963C51.24,-14.075 48.235,-16.289 44.124,-16.289C32.578,-16.289 26.095,-4.902 24.038,4.744C33.211,4.744 51.24,1.581 51.24,-9.963" style="fill:rgb(0,107,147);fill-rule:nonzero;"/>
        </g>
        <g transform="matrix(5.55556,0,0,5.55556,1989.41,222.936)">
            <path d="M0,76.735C0,73.097 0.475,69.46 1.265,65.506L15.973,-17.995L38.114,-17.995L32.737,11.736L53.454,11.736L50.449,28.974L29.732,28.974L23.248,65.506C23.09,67.087 22.774,69.301 22.774,70.725C22.931,76.576 26.588,77.104 31.471,77.525C44.903,78.684 63.121,66.48 65.81,65.056L72.629,77.619C55.538,92.756 30.278,94.73 22.371,94.73C4.816,94.73 0,86.066 0,76.735" style="fill:rgb(0,107,147);fill-rule:nonzero;"/>
        </g>
        <g transform="matrix(5.55556,0,0,5.55556,2383.02,325.042)">
            <path d="M0,-40.961C1.739,-41.277 5.693,-41.435 8.224,-41.435C13.6,-41.119 18.345,-39.696 18.345,-34.318C18.345,-26.411 5.851,-10.438 -2.689,0.474L-13.601,-3.48L0,-40.961Z" style="fill:rgb(87,181,188);fill-rule:nonzero;"/>
        </g>
        <g transform="matrix(5.55556,0,0,5.55556,270.506,534.017)">
            <path d="M0,-32.461L-4.637,-6.151L8.786,-6.151L7.712,0L-12.691,0L-6.98,-32.461L0,-32.461Z" style="fill:rgb(0,107,147);fill-rule:nonzero;"/>
        </g>
        <g transform="matrix(5.55556,0,0,5.55556,323.382,442.896)">
            <path d="M0,8.103C0,-1.855 5.565,-9.079 15.376,-9.079C17.426,-9.079 20.99,-8.64 24.455,-7.273L21.136,11.471L20.795,16.401L14.986,16.401L15.035,13.912L14.839,13.863C13.18,15.815 10.886,17.182 7.859,17.182C2.05,17.182 0,13.13 0,8.103M14.937,8.591L17.085,-3.71C16.499,-4.002 15.376,-4.198 14.156,-4.198C8.591,-4.198 6.834,2.879 6.834,7.322C6.834,9.958 7.664,12.203 10.251,12.203C12.838,12.203 14.595,10.397 14.937,8.591" style="fill:white;fill-rule:nonzero;"/>
        </g>
        <g transform="matrix(5.55556,0,0,5.55556,775.608,837.614)">
            <path d="M0,4.78C21.067,4.78 40.042,-1.046 60.659,-11.653L65.439,-1.94C43.618,10.01 20.763,16.433 0,16.433C-20.605,16.433 -43.472,10.01 -64.977,-1.642L-60.647,-11.355C-40.03,-1.344 -20.605,4.78 0,4.78" style="fill:rgb(0,107,147);fill-rule:nonzero;"/>
        </g>
        <g transform="matrix(0.72599,5.50792,5.50792,-0.72599,1455.54,490.597)">
            <path d="M22.544,-17.226C22.544,-17.226 13.276,5.273 9.401,26.653L22.544,25.328C22.544,25.328 25.907,8.29 33.769,-10.731L22.544,-17.226Z" style="fill:rgb(0,107,147);fill-rule:nonzero;"/>
        </g>
        <g transform="matrix(-0.72599,-5.50792,-5.50792,0.72599,756.551,526.822)">
            <path d="M-19.646,-25.71C-19.646,-25.71 -28.915,-3.211 -32.789,18.169L-19.646,16.844C-19.646,16.844 -16.283,-0.195 -8.421,-19.215L-19.646,-25.71Z" style="fill:rgb(0,107,147);fill-rule:nonzero;"/>
        </g>
        <g transform="matrix(-0.72599,-5.50792,-5.50792,0.72599,1198.24,490.704)">
            <path d="M-19.646,-25.71C-19.646,-25.71 -28.915,-3.211 -32.789,18.169L-19.646,16.844C-19.646,16.844 -16.283,-0.195 -8.421,-19.215L-19.646,-25.71Z" style="fill:rgb(0,107,147);fill-rule:nonzero;"/>
        </g>
    </g>
</svg>
