<?xml version="1.0" encoding="UTF-8" standalone="no"?>
<!DOCTYPE svg PUBLIC "-//W3C//DTD SVG 1.1//EN" "http://www.w3.org/Graphics/SVG/1.1/DTD/svg11.dtd">
<svg width="100%" height="100%" viewBox="0 0 2285 872" version="1.1" xmlns="http://www.w3.org/2000/svg" xmlns:xlink="http://www.w3.org/1999/xlink" xml:space="preserve" xmlns:serif="http://www.serif.com/" style="fill-rule:evenodd;clip-rule:evenodd;stroke-linejoin:round;stroke-miterlimit:2;">
    <g transform="matrix(1,0,0,1,-9.8769,16.5857)">
        <g transform="matrix(72,0,0,72,1394.38,740.897)">
            <path d="M0.057,-0L0.493,-0L0.52,-0.151L0.255,-0.151L0.345,-0.665L0.174,-0.665L0.057,-0Z" style="fill:rgb(0,107,147);fill-rule:nonzero;"/>
        </g>
        <g transform="matrix(72,0,0,72,1430.74,740.897)">
            <path d="M0.577,-0.487C0.502,-0.517 0.427,-0.527 0.385,-0.527C0.176,-0.527 0.062,-0.377 0.062,-0.172C0.062,-0.064 0.11,0.015 0.217,0.015C0.277,0.015 0.322,-0.007 0.357,-0.048L0.362,-0.047L0.362,-0L0.503,-0L0.51,-0.108L0.577,-0.487ZM0.356,-0.161C0.346,-0.126 0.322,-0.104 0.288,-0.104C0.24,-0.104 0.229,-0.143 0.229,-0.191C0.229,-0.273 0.262,-0.41 0.353,-0.41C0.371,-0.41 0.387,-0.407 0.398,-0.402L0.356,-0.161Z" style="fill:rgb(0,107,147);fill-rule:nonzero;"/>
        </g>
        <g transform="matrix(72,0,0,72,1484.02,740.897)">
            <path d="M0.286,-0.381L0.424,-0.381L0.447,-0.512L0.31,-0.512L0.314,-0.539C0.321,-0.584 0.343,-0.597 0.376,-0.597C0.397,-0.597 0.432,-0.588 0.462,-0.571L0.517,-0.677C0.48,-0.701 0.415,-0.72 0.357,-0.72C0.198,-0.72 0.165,-0.636 0.145,-0.522L0.016,0.21L0.183,0.21L0.286,-0.381Z" style="fill:rgb(0,107,147);fill-rule:nonzero;"/>
        </g>
        <g transform="matrix(72,0,0,72,1509.58,740.897)">
            <path d="M0.577,-0.487C0.502,-0.517 0.427,-0.527 0.385,-0.527C0.176,-0.527 0.062,-0.377 0.062,-0.172C0.062,-0.064 0.11,0.015 0.217,0.015C0.277,0.015 0.322,-0.007 0.357,-0.048L0.362,-0.047L0.362,-0L0.503,-0L0.51,-0.108L0.577,-0.487ZM0.356,-0.161C0.346,-0.126 0.322,-0.104 0.288,-0.104C0.24,-0.104 0.229,-0.143 0.229,-0.191C0.229,-0.273 0.262,-0.41 0.353,-0.41C0.371,-0.41 0.387,-0.407 0.398,-0.402L0.356,-0.161Z" style="fill:rgb(0,107,147);fill-rule:nonzero;"/>
        </g>
        <g transform="matrix(72,0,0,72,1548.68,740.897)">
            <path d="M0.219,-0L0.276,-0.323C0.284,-0.367 0.306,-0.399 0.347,-0.399C0.375,-0.399 0.381,-0.379 0.381,-0.357C0.381,-0.344 0.377,-0.321 0.374,-0.304L0.32,-0L0.487,-0L0.544,-0.323C0.551,-0.366 0.574,-0.399 0.615,-0.399C0.641,-0.399 0.648,-0.382 0.648,-0.359C0.648,-0.347 0.645,-0.324 0.642,-0.308L0.588,-0L0.755,-0L0.816,-0.348C0.819,-0.366 0.821,-0.385 0.821,-0.401C0.821,-0.487 0.773,-0.527 0.69,-0.527C0.626,-0.527 0.578,-0.501 0.541,-0.461C0.522,-0.506 0.479,-0.527 0.42,-0.527C0.354,-0.527 0.31,-0.5 0.271,-0.458L0.269,-0.512L0.132,-0.512L0.125,-0.409L0.053,-0L0.219,-0Z" style="fill:rgb(0,107,147);fill-rule:nonzero;"/>
        </g>
        <g transform="matrix(72,0,0,72,1606.42,740.897)">
            <path d="M0.221,-0L0.311,-0.512L0.144,-0.512L0.054,-0L0.221,-0ZM0.163,-0.644C0.163,-0.604 0.19,-0.575 0.238,-0.575C0.297,-0.575 0.343,-0.617 0.343,-0.67C0.343,-0.709 0.314,-0.741 0.267,-0.741C0.207,-0.741 0.163,-0.696 0.163,-0.644Z" style="fill:rgb(0,107,147);fill-rule:nonzero;"/>
        </g>
        <g transform="matrix(72,0,0,72,1626.01,740.897)">
            <path d="M0.173,-0.695L0.082,-0.181C0.078,-0.156 0.075,-0.132 0.075,-0.11C0.076,-0.033 0.107,0.016 0.213,0.016C0.258,0.016 0.322,0.003 0.361,-0.02L0.343,-0.131C0.318,-0.121 0.296,-0.115 0.281,-0.115C0.258,-0.115 0.247,-0.124 0.246,-0.148C0.246,-0.157 0.247,-0.169 0.249,-0.181L0.34,-0.695L0.173,-0.695Z" style="fill:rgb(0,107,147);fill-rule:nonzero;"/>
        </g>
        <g transform="matrix(72,0,0,72,1650.27,740.897)">
            <path d="M0.173,-0.695L0.082,-0.181C0.078,-0.156 0.075,-0.132 0.075,-0.11C0.076,-0.033 0.107,0.016 0.213,0.016C0.258,0.016 0.322,0.003 0.361,-0.02L0.343,-0.131C0.318,-0.121 0.296,-0.115 0.281,-0.115C0.258,-0.115 0.247,-0.124 0.246,-0.148C0.246,-0.157 0.247,-0.169 0.249,-0.181L0.34,-0.695L0.173,-0.695Z" style="fill:rgb(0,107,147);fill-rule:nonzero;"/>
        </g>
        <g transform="matrix(72,0,0,72,1675.26,740.897)">
            <path d="M0.221,-0L0.311,-0.512L0.144,-0.512L0.054,-0L0.221,-0ZM0.163,-0.644C0.163,-0.604 0.19,-0.575 0.238,-0.575C0.297,-0.575 0.343,-0.617 0.343,-0.67C0.343,-0.709 0.314,-0.741 0.267,-0.741C0.207,-0.741 0.163,-0.696 0.163,-0.644Z" style="fill:rgb(0,107,147);fill-rule:nonzero;"/>
        </g>
        <g transform="matrix(72,0,0,72,1694.84,740.897)">
            <path d="M0.382,-0.377C0.382,-0.323 0.3,-0.295 0.242,-0.292C0.255,-0.346 0.288,-0.409 0.347,-0.409C0.365,-0.409 0.382,-0.399 0.382,-0.377ZM0.371,-0.527C0.177,-0.527 0.064,-0.36 0.064,-0.19C0.064,-0.072 0.124,0.016 0.27,0.016C0.382,0.016 0.461,-0.029 0.481,-0.043L0.446,-0.15C0.41,-0.129 0.364,-0.108 0.316,-0.108C0.255,-0.108 0.231,-0.146 0.232,-0.191C0.339,-0.198 0.529,-0.228 0.529,-0.396C0.529,-0.482 0.469,-0.527 0.371,-0.527Z" style="fill:rgb(0,107,147);fill-rule:nonzero;"/>
        </g>
        <g transform="matrix(72,0,0,72,1743.87,740.897)">
            <path d="M0.026,-0.044C0.054,-0.021 0.13,0.016 0.226,0.016C0.362,0.016 0.454,-0.047 0.454,-0.162C0.454,-0.247 0.396,-0.28 0.343,-0.301C0.283,-0.325 0.25,-0.335 0.25,-0.37C0.25,-0.391 0.268,-0.408 0.302,-0.408C0.335,-0.408 0.373,-0.39 0.411,-0.357L0.496,-0.444C0.456,-0.49 0.38,-0.527 0.3,-0.527C0.177,-0.527 0.082,-0.465 0.082,-0.348C0.082,-0.252 0.148,-0.222 0.201,-0.202C0.241,-0.187 0.285,-0.174 0.285,-0.146C0.285,-0.119 0.264,-0.106 0.231,-0.106C0.184,-0.106 0.122,-0.134 0.088,-0.157L0.026,-0.044Z" style="fill:rgb(0,107,147);fill-rule:nonzero;"/>
        </g>
        <g transform="matrix(72,0,0,72,1775.91,740.897)">
            <path d="M0.382,-0.377C0.382,-0.323 0.3,-0.295 0.242,-0.292C0.255,-0.346 0.288,-0.409 0.347,-0.409C0.365,-0.409 0.382,-0.399 0.382,-0.377ZM0.371,-0.527C0.177,-0.527 0.064,-0.36 0.064,-0.19C0.064,-0.072 0.124,0.016 0.27,0.016C0.382,0.016 0.461,-0.029 0.481,-0.043L0.446,-0.15C0.41,-0.129 0.364,-0.108 0.316,-0.108C0.255,-0.108 0.231,-0.146 0.232,-0.191C0.339,-0.198 0.529,-0.228 0.529,-0.396C0.529,-0.482 0.469,-0.527 0.371,-0.527Z" style="fill:rgb(0,107,147);fill-rule:nonzero;"/>
        </g>
        <g transform="matrix(72,0,0,72,1824.94,740.897)">
            <path d="M0.173,-0.695L0.082,-0.181C0.078,-0.156 0.075,-0.132 0.075,-0.11C0.076,-0.033 0.107,0.016 0.213,0.016C0.258,0.016 0.322,0.003 0.361,-0.02L0.343,-0.131C0.318,-0.121 0.296,-0.115 0.281,-0.115C0.258,-0.115 0.247,-0.124 0.246,-0.148C0.246,-0.157 0.247,-0.169 0.249,-0.181L0.34,-0.695L0.173,-0.695Z" style="fill:rgb(0,107,147);fill-rule:nonzero;"/>
        </g>
        <g transform="matrix(72,0,0,72,1849.93,740.897)">
            <path d="M0.221,-0L0.311,-0.512L0.144,-0.512L0.054,-0L0.221,-0ZM0.163,-0.644C0.163,-0.604 0.19,-0.575 0.238,-0.575C0.297,-0.575 0.343,-0.617 0.343,-0.67C0.343,-0.709 0.314,-0.741 0.267,-0.741C0.207,-0.741 0.163,-0.696 0.163,-0.644Z" style="fill:rgb(0,107,147);fill-rule:nonzero;"/>
        </g>
        <g transform="matrix(72,0,0,72,1869.51,740.897)">
            <path d="M0.175,-0.695L0.085,-0.181C0.08,-0.154 0.076,-0.13 0.076,-0.106C0.077,-0.042 0.106,0.016 0.226,0.016C0.281,0.016 0.343,-0.001 0.378,-0.021L0.356,-0.128C0.339,-0.118 0.319,-0.11 0.299,-0.11C0.272,-0.11 0.25,-0.116 0.249,-0.151C0.249,-0.159 0.25,-0.172 0.251,-0.182L0.287,-0.381L0.413,-0.381L0.435,-0.512L0.31,-0.512L0.343,-0.695L0.175,-0.695Z" style="fill:rgb(0,107,147);fill-rule:nonzero;"/>
        </g>
        <g transform="matrix(72,0,0,72,1910.55,740.897)">
            <path d="M0.382,-0.377C0.382,-0.323 0.3,-0.295 0.242,-0.292C0.255,-0.346 0.288,-0.409 0.347,-0.409C0.365,-0.409 0.382,-0.399 0.382,-0.377ZM0.371,-0.527C0.177,-0.527 0.064,-0.36 0.064,-0.19C0.064,-0.072 0.124,0.016 0.27,0.016C0.382,0.016 0.461,-0.029 0.481,-0.043L0.446,-0.15C0.41,-0.129 0.364,-0.108 0.316,-0.108C0.255,-0.108 0.231,-0.146 0.232,-0.191C0.339,-0.198 0.529,-0.228 0.529,-0.396C0.529,-0.482 0.469,-0.527 0.371,-0.527Z" style="fill:rgb(0,107,147);fill-rule:nonzero;"/>
        </g>
        <g transform="matrix(72,0,0,72,1945.4,740.897)">
            <path d="M0.175,-0.695L0.085,-0.181C0.08,-0.154 0.076,-0.13 0.076,-0.106C0.077,-0.042 0.106,0.016 0.226,0.016C0.281,0.016 0.343,-0.001 0.378,-0.021L0.356,-0.128C0.339,-0.118 0.319,-0.11 0.299,-0.11C0.272,-0.11 0.25,-0.116 0.249,-0.151C0.249,-0.159 0.25,-0.172 0.251,-0.182L0.287,-0.381L0.413,-0.381L0.435,-0.512L0.31,-0.512L0.343,-0.695L0.175,-0.695Z" style="fill:rgb(0,107,147);fill-rule:nonzero;"/>
        </g>
        <g transform="matrix(72,0,0,72,1986.44,740.897)">
            <path d="M0.026,-0.044C0.054,-0.021 0.13,0.016 0.226,0.016C0.362,0.016 0.454,-0.047 0.454,-0.162C0.454,-0.247 0.396,-0.28 0.343,-0.301C0.283,-0.325 0.25,-0.335 0.25,-0.37C0.25,-0.391 0.268,-0.408 0.302,-0.408C0.335,-0.408 0.373,-0.39 0.411,-0.357L0.496,-0.444C0.456,-0.49 0.38,-0.527 0.3,-0.527C0.177,-0.527 0.082,-0.465 0.082,-0.348C0.082,-0.252 0.148,-0.222 0.201,-0.202C0.241,-0.187 0.285,-0.174 0.285,-0.146C0.285,-0.119 0.264,-0.106 0.231,-0.106C0.184,-0.106 0.122,-0.134 0.088,-0.157L0.026,-0.044Z" style="fill:rgb(0,107,147);fill-rule:nonzero;"/>
        </g>
        <g transform="matrix(72,0,0,72,2018.48,740.897)">
            <path d="M0.382,-0.377C0.382,-0.323 0.3,-0.295 0.242,-0.292C0.255,-0.346 0.288,-0.409 0.347,-0.409C0.365,-0.409 0.382,-0.399 0.382,-0.377ZM0.371,-0.527C0.177,-0.527 0.064,-0.36 0.064,-0.19C0.064,-0.072 0.124,0.016 0.27,0.016C0.382,0.016 0.461,-0.029 0.481,-0.043L0.446,-0.15C0.41,-0.129 0.364,-0.108 0.316,-0.108C0.255,-0.108 0.231,-0.146 0.232,-0.191C0.339,-0.198 0.529,-0.228 0.529,-0.396C0.529,-0.482 0.469,-0.527 0.371,-0.527Z" style="fill:rgb(0,107,147);fill-rule:nonzero;"/>
        </g>
        <g transform="matrix(72,0,0,72,2067.51,740.897)">
            <path d="M0.277,-0.313C0.286,-0.36 0.32,-0.386 0.363,-0.386C0.388,-0.386 0.412,-0.378 0.431,-0.368L0.479,-0.507C0.459,-0.52 0.428,-0.527 0.399,-0.527C0.357,-0.527 0.305,-0.504 0.268,-0.441L0.265,-0.512L0.131,-0.512L0.127,-0.415L0.054,-0L0.221,-0L0.277,-0.313Z" style="fill:rgb(0,107,147);fill-rule:nonzero;"/>
        </g>
        <g transform="matrix(72,0,0,72,2094.8,740.897)">
            <path d="M0.382,-0.377C0.382,-0.323 0.3,-0.295 0.242,-0.292C0.255,-0.346 0.288,-0.409 0.347,-0.409C0.365,-0.409 0.382,-0.399 0.382,-0.377ZM0.371,-0.527C0.177,-0.527 0.064,-0.36 0.064,-0.19C0.064,-0.072 0.124,0.016 0.27,0.016C0.382,0.016 0.461,-0.029 0.481,-0.043L0.446,-0.15C0.41,-0.129 0.364,-0.108 0.316,-0.108C0.255,-0.108 0.231,-0.146 0.232,-0.191C0.339,-0.198 0.529,-0.228 0.529,-0.396C0.529,-0.482 0.469,-0.527 0.371,-0.527Z" style="fill:rgb(0,107,147);fill-rule:nonzero;"/>
        </g>
        <g transform="matrix(72,0,0,72,2129.65,740.897)">
            <path d="M0.173,-0.695L0.082,-0.181C0.078,-0.156 0.075,-0.132 0.075,-0.11C0.076,-0.033 0.107,0.016 0.213,0.016C0.258,0.016 0.322,0.003 0.361,-0.02L0.343,-0.131C0.318,-0.121 0.296,-0.115 0.281,-0.115C0.258,-0.115 0.247,-0.124 0.246,-0.148C0.246,-0.157 0.247,-0.169 0.249,-0.181L0.34,-0.695L0.173,-0.695Z" style="fill:rgb(0,107,147);fill-rule:nonzero;"/>
        </g>
        <g transform="matrix(72,0,0,72,2154.63,740.897)">
            <path d="M0.221,-0L0.311,-0.512L0.144,-0.512L0.054,-0L0.221,-0ZM0.163,-0.644C0.163,-0.604 0.19,-0.575 0.238,-0.575C0.297,-0.575 0.343,-0.617 0.343,-0.67C0.343,-0.709 0.314,-0.741 0.267,-0.741C0.207,-0.741 0.163,-0.696 0.163,-0.644Z" style="fill:rgb(0,107,147);fill-rule:nonzero;"/>
        </g>
        <g transform="matrix(72,0,0,72,2174.22,740.897)">
            <path d="M0.382,-0.377C0.382,-0.323 0.3,-0.295 0.242,-0.292C0.255,-0.346 0.288,-0.409 0.347,-0.409C0.365,-0.409 0.382,-0.399 0.382,-0.377ZM0.371,-0.527C0.177,-0.527 0.064,-0.36 0.064,-0.19C0.064,-0.072 0.124,0.016 0.27,0.016C0.382,0.016 0.461,-0.029 0.481,-0.043L0.446,-0.15C0.41,-0.129 0.364,-0.108 0.316,-0.108C0.255,-0.108 0.231,-0.146 0.232,-0.191C0.339,-0.198 0.529,-0.228 0.529,-0.396C0.529,-0.482 0.469,-0.527 0.371,-0.527Z" style="fill:rgb(0,107,147);fill-rule:nonzero;"/>
        </g>
        <g transform="matrix(72,0,0,72,2223.25,740.897)">
            <path d="M0.155,-0.529L0.121,-0.196L0.218,-0.196L0.301,-0.529L0.32,-0.633C0.326,-0.667 0.311,-0.695 0.258,-0.695C0.205,-0.695 0.18,-0.668 0.174,-0.635L0.155,-0.529ZM0.059,-0.05C0.059,-0.013 0.082,0.017 0.131,0.017C0.19,0.017 0.229,-0.029 0.229,-0.076C0.229,-0.113 0.204,-0.141 0.157,-0.141C0.102,-0.141 0.059,-0.098 0.059,-0.05Z" style="fill:rgb(0,107,147);fill-rule:nonzero;"/>
        </g>
    </g>
    <g transform="matrix(1,0,0,1,-200.001,-94.8478)">
        <g transform="matrix(5.55556,0,0,5.55556,320.931,376.874)">
            <path d="M0,23.406C0,-25.462 30.048,-42.7 56.458,-42.7C70.059,-42.7 85.241,-37.322 92.516,-21.982L74.803,-11.07C69.268,-20.084 63.1,-23.722 54.719,-23.722C36.532,-23.722 23.564,-6.484 23.564,21.983C23.564,37.955 29.573,47.761 43.648,47.761C49.974,47.761 56.3,46.179 60.096,44.281L63.575,24.671L47.286,24.671L50.132,8.698L87.297,8.698L78.915,55.668C69.11,61.519 54.561,66.106 39.379,66.106C14.707,66.106 0,52.347 0,23.406" style="fill:rgb(0,107,147);fill-rule:nonzero;"/>
        </g>
        <g transform="matrix(5.55556,0,0,5.55556,825.259,438.374)">
            <path d="M0,26.253C0,-6.009 18.029,-29.415 49.816,-29.415C56.458,-29.415 68.003,-27.992 79.232,-23.563L68.478,37.165L67.371,53.138L48.551,53.138L48.709,45.073L48.077,44.914C42.7,51.24 35.267,55.668 25.462,55.668C6.642,55.668 0,42.542 0,26.253M48.393,27.834L55.351,-12.019C53.454,-12.968 49.816,-13.6 45.863,-13.6C27.834,-13.6 22.141,9.331 22.141,23.722C22.141,32.263 24.829,39.537 33.211,39.537C41.593,39.537 47.286,33.686 48.393,27.834" style="fill:rgb(0,107,147);fill-rule:nonzero;"/>
        </g>
        <g transform="matrix(5.55556,0,0,5.55556,1191.64,410.259)">
            <path d="M0,78.125C0,62.152 10.121,49.975 30.206,40.644C25.778,38.114 21.033,36.058 16.921,34.16L18.977,21.983L50.448,-4.902L16.763,-4.902L19.768,-21.982L81.287,-21.982L78.915,-8.856L39.853,24.83L48.234,28.941C61.835,35.425 67.528,45.072 67.528,58.515C67.528,83.185 50.132,100.107 26.41,100.107C8.54,100.107 0,91.726 0,78.125M46.337,61.519C46.337,56.142 44.755,52.03 41.276,49.343C27.201,55.668 20.401,64.999 20.401,74.171C20.401,79.864 22.931,83.66 29.099,83.66C40.011,83.66 46.337,73.064 46.337,61.519" style="fill:rgb(0,107,147);fill-rule:nonzero;"/>
        </g>
        <g transform="matrix(5.55556,0,0,5.55556,1592.28,453.313)">
            <path d="M0,20.717C0,-6.326 17.713,-32.104 47.286,-32.104C62.152,-32.104 71.008,-24.671 71.008,-12.652C71.008,14.55 39.379,18.503 22.299,19.136C21.824,27.834 25.462,36.057 37.165,36.057C45.704,36.057 64.929,31.313 73.159,21.708L75.606,38.13C71.969,40.819 48.235,52.821 31.471,52.821C9.331,52.821 0,39.22 0,20.717M51.24,-9.963C51.24,-14.075 48.235,-16.289 44.124,-16.289C32.578,-16.289 26.095,-4.902 24.038,4.744C33.211,4.744 51.24,1.581 51.24,-9.963" style="fill:rgb(0,107,147);fill-rule:nonzero;"/>
        </g>
        <g transform="matrix(5.55556,0,0,5.55556,1989.41,222.936)">
            <path d="M0,76.735C0,73.097 0.475,69.46 1.265,65.506L15.973,-17.995L38.114,-17.995L32.737,11.736L53.454,11.736L50.449,28.974L29.732,28.974L23.248,65.506C23.09,67.087 22.774,69.301 22.774,70.725C22.931,76.576 26.588,77.104 31.471,77.525C44.903,78.684 63.121,66.48 65.81,65.056L72.629,77.619C55.538,92.756 30.278,94.73 22.371,94.73C4.816,94.73 0,86.066 0,76.735" style="fill:rgb(0,107,147);fill-rule:nonzero;"/>
        </g>
        <g transform="matrix(5.55556,0,0,5.55556,2383.02,325.042)">
            <path d="M0,-40.961C1.739,-41.277 5.693,-41.435 8.224,-41.435C13.6,-41.119 18.345,-39.696 18.345,-34.318C18.345,-26.411 5.851,-10.438 -2.689,0.474L-13.601,-3.48L0,-40.961Z" style="fill:rgb(87,181,188);fill-rule:nonzero;"/>
        </g>
        <g transform="matrix(5.55556,0,0,5.55556,270.506,534.017)">
            <path d="M0,-32.461L-4.637,-6.151L8.786,-6.151L7.712,0L-12.691,0L-6.98,-32.461L0,-32.461Z" style="fill:rgb(0,107,147);fill-rule:nonzero;"/>
        </g>
        <g transform="matrix(5.55556,0,0,5.55556,323.382,442.896)">
            <path d="M0,8.103C0,-1.855 5.565,-9.079 15.376,-9.079C17.426,-9.079 20.99,-8.64 24.455,-7.273L21.136,11.471L20.795,16.401L14.986,16.401L15.035,13.912L14.839,13.863C13.18,15.815 10.886,17.182 7.859,17.182C2.05,17.182 0,13.13 0,8.103M14.937,8.591L17.085,-3.71C16.499,-4.002 15.376,-4.198 14.156,-4.198C8.591,-4.198 6.834,2.879 6.834,7.322C6.834,9.958 7.664,12.203 10.251,12.203C12.838,12.203 14.595,10.397 14.937,8.591" style="fill:white;fill-rule:nonzero;"/>
        </g>
        <g transform="matrix(5.55556,0,0,5.55556,775.608,837.614)">
            <path d="M0,4.78C21.067,4.78 40.042,-1.046 60.659,-11.653L65.439,-1.94C43.618,10.01 20.763,16.433 0,16.433C-20.605,16.433 -43.472,10.01 -64.977,-1.642L-60.647,-11.355C-40.03,-1.344 -20.605,4.78 0,4.78" style="fill:rgb(0,107,147);fill-rule:nonzero;"/>
        </g>
        <g transform="matrix(0.72599,5.50792,5.50792,-0.72599,1455.54,490.597)">
            <path d="M22.544,-17.226C22.544,-17.226 13.276,5.273 9.401,26.653L22.544,25.328C22.544,25.328 25.907,8.29 33.769,-10.731L22.544,-17.226Z" style="fill:rgb(0,107,147);fill-rule:nonzero;"/>
        </g>
        <g transform="matrix(-0.72599,-5.50792,-5.50792,0.72599,756.551,526.822)">
            <path d="M-19.646,-25.71C-19.646,-25.71 -28.915,-3.211 -32.789,18.169L-19.646,16.844C-19.646,16.844 -16.283,-0.195 -8.421,-19.215L-19.646,-25.71Z" style="fill:rgb(0,107,147);fill-rule:nonzero;"/>
        </g>
        <g transform="matrix(-0.72599,-5.50792,-5.50792,0.72599,1198.24,490.704)">
            <path d="M-19.646,-25.71C-19.646,-25.71 -28.915,-3.211 -32.789,18.169L-19.646,16.844C-19.646,16.844 -16.283,-0.195 -8.421,-19.215L-19.646,-25.71Z" style="fill:rgb(0,107,147);fill-rule:nonzero;"/>
        </g>
    </g>
</svg>
