<?xml version="1.0" encoding="UTF-8" standalone="no"?>
<!DOCTYPE svg PUBLIC "-//W3C//DTD SVG 1.1//EN" "http://www.w3.org/Graphics/SVG/1.1/DTD/svg11.dtd">
<svg width="100%" height="100%" viewBox="0 0 120 167" version="1.1" xmlns="http://www.w3.org/2000/svg" xmlns:xlink="http://www.w3.org/1999/xlink" xml:space="preserve" xmlns:serif="http://www.serif.com/" style="fill-rule:evenodd;clip-rule:evenodd;stroke-linejoin:round;stroke-miterlimit:2;">
    <g transform="matrix(1,0,0,1,-247.509,-3695.26)">
        <g transform="matrix(5.55556,0,0,5.55556,270.951,3729.08)">
            <path d="M0,17.824C0,17.824 -1.023,22.611 -3.038,23.891C-3.072,23.912 -3.114,23.913 -3.147,23.893C-3.181,23.873 -3.199,23.836 -3.197,23.797C-2.588,13.92 3.735,1.194 10.975,-2.707C6.328,-0.772 -0.746,5.324 -3.208,16.47C-6.79,7.877 -1.059,-6.089 17.207,-6.089C14.191,-5.004 13.933,-1.926 12.99,1.964L7.673,3.553L12.569,3.553C12.331,4.37 12.048,5.211 11.692,6.071L5.501,7.838L10.859,7.838C9.078,11.184 5.965,14.684 0,17.824M13.074,21.36C12.438,21.407 11.276,22.38 10.424,22.38C9.573,22.38 9.179,21.22 8.239,21.22C7.08,21.22 6.38,22.621 5.633,22.621C4.886,22.621 4.662,20.694 3.164,20.694C1.446,20.694 -0.385,23.903 0.165,23.903C1.18,23.903 1.666,22.51 3.164,22.51C4.532,22.51 4.543,23.903 5.633,23.903C6.723,23.903 7.08,22.929 8.239,22.929C9.194,22.929 9.241,23.88 10.385,23.88C11.528,23.88 12.481,22.917 13.158,22.921C13.837,22.926 14.736,23.908 16.003,23.908C16.742,23.908 14.205,21.36 13.074,21.36" style="fill:white;fill-rule:nonzero;"/>
        </g>
    </g>
</svg>
